<?xml version="1.0" encoding="utf-8"?>
<!-- Generator: Adobe Illustrator 20.0.0, SVG Export Plug-In . SVG Version: 6.00 Build 0)  -->
<svg version="1.1" id="tc-symphony-logo" xmlns="http://www.w3.org/2000/svg" xmlns:xlink="http://www.w3.org/1999/xlink" x="0px" y="0px"
	 viewBox="75 150 400 200">
<style type="text/css">
	.st0{fill:#A4979B;}
	.st1{fill:#282727;}
	.st2{fill:none;stroke:#8C8585;stroke-miterlimit:10;}
	.st3{fill:#D22937;}
	.st4{fill:#D22937;stroke:#CE3A43;stroke-miterlimit:10;}
	.st5{fill:#FFFFFF;}
</style>
<polygon class="st0" points="271.4,254.4 271.4,248.2 281.9,248.2 281.9,238.2 290.3,231.4 294.4,231.4 301.6,237.4 301.6,249.8 
	303.9,250 303.9,237.8 311,235.4 317.1,236.9 317.1,242.9 319.5,246.4 319.5,250.9 321.8,250.9 321.8,249.3 323.4,246.2 
	325.3,248.9 325.3,250.9 327.4,250.9 327.4,222 345.3,222 345.3,243.8 348.6,243.8 348.6,238.2 355,238.2 355,236.5 363.4,236.2 
	363.4,234.5 367,234.5 367,235.6 370.1,236.2 370.1,232.7 372.1,232.9 372.1,231.8 373.4,231.8 373.4,230 381.6,230.5 381.6,228.3 
	387,228.3 387,230 388.6,230.3 388.6,236.7 404.6,236.7 404.6,238.2 414.1,238.2 414.1,244.2 417.9,244.2 417.9,238.2 420.9,238.2 
	420.9,236.5 428.1,236.5 428.1,238.2 431.4,238.2 431.4,250.7 431.4,252.4 "/>
<polygon class="st1" points="103.2,254.4 102.9,236.8 104.5,236.8 104.4,233.6 122.1,233.3 121.7,204.8 123,202.6 122.9,197.3 
	140.8,197 140.7,186.3 144.8,186.2 144.8,182.5 151,182.4 151.1,185.1 154.8,184.7 155.1,203.5 158.9,203.5 159,215.6 166.4,215.5 
	166.2,163.4 181.7,164.5 182.5,223 183.9,223.1 184.2,184.6 184.9,183 184.8,173 186.1,173.3 186,167.6 189.1,167.9 189.2,172.4 
	191,172.9 191,177.2 191.7,177.2 191.8,182.1 192.6,181.8 192.9,201.6 192.9,203.5 196.5,204.3 196.6,207.5 197.8,208.6 
	197.7,231.1 199.3,231.1 199.7,214.5 201.5,207.7 203.8,214.4 204,225.7 210.2,225.6 210.3,231.3 213.5,231.5 214,210.8 
	215.5,210.7 215.4,207.3 220.8,207.2 220.8,209.6 222.5,209.6 222.4,205.3 223.6,205.3 223.4,192.9 224.1,192.4 223.9,178.9 
	225.4,178.6 225.3,172.5 223.5,169.3 234.2,169.5 232.8,171 232.5,178 233.7,178 233.9,187.6 241.1,187.8 241.5,214.7 243.7,214.6 
	243.8,221.6 249.5,221.5 249.5,226 253.3,226 253.4,219.1 260.3,219.2 260.4,223.5 261.8,223.5 261.9,215.7 263.5,215.7 267.2,210 
	269.5,214.3 270.8,215.1 271.1,239.5 271.4,254.4 "/>
<g>
	<line class="st2" x1="96.2" y1="257.8" x2="431.2" y2="257.8"/>
	<line class="st2" x1="96.2" y1="269.8" x2="431.2" y2="269.8"/>
	<line class="st2" x1="96.2" y1="281.8" x2="431.2" y2="281.8"/>
	<line class="st2" x1="96.2" y1="291.4" x2="431.2" y2="291.4"/>
	<line class="st2" x1="96.2" y1="301" x2="431.2" y2="301"/>
	<line class="st2" x1="96.2" y1="257.8" x2="96.2" y2="301"/>
	<line class="st2" x1="103.1" y1="257.8" x2="103.1" y2="301"/>
</g>
<path class="st3" d="M142.4,263.8c-0.2,0.4-0.4,0.6-0.7,0.6H140c-0.7,0-0.9-0.4-0.9-0.9c0.6-3.7-0.6-14.7-9.9-14.7
	c-5.3,0-8.3,5-8.3,8.9c0,6.4,4,9.4,8.3,13.6s10.3,9.4,10.3,19.6c0,11.8-8.5,18-18,18c-5.9,0-10.1-3.5-13.1-6.8
	c-0.9-0.9-1.8-0.7-2.4-0.2c-0.6,0.7-1.5,2.2-2.2,3.5c-0.2,0.4-0.4,0.6-0.9,0.4l-1.1-0.6c-0.6-0.2-0.6-0.2-0.4-0.9l6.8-20.1
	c0.2-0.4,0.4-0.4,0.9-0.4l1.5,0.4c0.4,0.2,0.6,0.4,0.6,0.9c-2.6,13.2,4.6,19.5,10.3,19.5c5.9,0,9.9-4.6,9.9-9.7
	c0-5.9-4.6-9.4-8.6-13.8c-5.7-6.3-10.5-11-10.5-20.5c0-6.6,5.2-16.2,17.1-16.2c5,0,9.4,3.1,10.9,4.2c0.4,0.2,0.7,0.4,1.3,0.4
	s1.1-1.3,1.5-3.1c0-0.4,0.2-0.4,0.9-0.4l1.1,0.2c0.6,0,0.7,0.2,0.7,0.6L142.4,263.8z"/>
<path class="st3" d="M163.2,308.3c1.7-2.9,7.2-13.8,8.3-18.4c0.4-1.5,1.1-3.7,1.1-5.9c0-1.7-0.4-3.1-0.7-4.2
	c-0.4-1.1-0.9-2.4-0.9-3.7c0-1.7,1.3-3.9,4.6-3.9c3.5,0,4.6,2.6,4.6,5.9c0,4-3.3,12.1-6.4,18.4c-4.6,9-14.3,25.2-22.4,32.9
	c-2.7,2.6-8.2,8.4-13.9,8.4c-4,0-5.9-2.2-5.9-4.8c0-2.8,2.2-4.6,4.2-4.8c1.7,0,2.4,0.7,3.3,1.7c0.7,0.7,1.8,1.3,2.6,1.3
	c0.9,0,2.4-0.4,4.1-1.6c4.2-3,7.6-8.2,9.1-10.5c1-1.7,1.3-3.9,0.9-6.3c-0.2-2.9-2.3-27.4-3.4-31.5c-0.5-1.7-0.6-2.4-1.7-2.4
	c-1.7,0-4,4.6-4.8,6.6c-0.2,0.6-0.4,0.6-0.8,0.5l-1.4-0.5c-0.4,0-0.4-0.4-0.2-1.1c0.4-1.1,4.2-12.3,12.3-12.3
	c3.3,0,5.2,2.4,5.7,10.1c0.7,10.5,1.1,21.3,1.2,25.9h0.5V308.3z"/>
<path class="st3" d="M190.3,292.3c2.1-5.7,4.7-11.5,4.7-12.9c0-0.7-0.4-1.3-1.2-1.3c-1.1,0-5.9,4.4-6.6,5.5c-0.4,0.4-0.7,0.4-1.1,0
	l-1.1-0.9c-0.2-0.4-0.4-0.6-0.2-0.9c1.8-2.2,8.5-9.6,15.2-9.6c2.8,0,4,1.3,4,3.3c0,2.6-5.2,12.9-5.9,15.1l0.7,0.4
	c3.9-6.4,12-18.8,20.2-18.8c3.1,0,5.1,2.1,5.1,4.3c0,3.4-3.4,11.3-4.9,14.6l0.7,0.4c5-7.7,12.1-19.3,20.6-19.3c3.3,0,5.1,2.9,5.1,5
	c0,2.7-2.3,7.9-5.1,15.8c-1.8,5.3-3.7,9.2-3.7,10.7c0.2,0.7,0.6,1.3,1.1,1.3c2,0,6.4-5.9,7-6.6c0.2-0.4,0.6-0.4,0.7-0.3l1.3,0.8
	c0.4,0.4,0.4,0.6,0.2,1.3c-0.4,0.6-8.1,11.2-16.6,11.2c-2,0-3.1-1.5-3.1-2.8c0-2,2-7.7,5.5-16.6c2.9-7.2,4-10.3,4-11.8
	c0-1.1-0.6-1.8-1.9-1.8c-2.2,0-9.6,8.3-15.3,16.9c-0.6,0.9-2.2,3.3-3.5,6.4l-2.9,7.9c-0.2,0.6-0.6,0.7-1.4,0.7h-5.8
	c-0.7,0-1.1-0.4-0.9-0.9l5.8-15.3c2.4-6.4,4.7-12.5,4.7-13.8c0.1-1.1-0.7-1.8-1.9-1.8c-2.2,0-9.4,7.7-14.7,15.5
	c-1.3,1.8-2.8,4.4-4.2,7.7l-3,7.9c-0.2,0.6-0.6,0.7-1.4,0.7h-5.8c-0.6,0-1-0.4-0.7-1.1L190.3,292.3z"/>
<path class="st3" d="M255.4,328.5c-1.7,4.8-0.7,6.3,2.8,6.3h2.6c0.6,0,0.7,0.4,0.6,0.8l-0.5,1.9c-0.1,0.4-0.5,0.6-1.2,0.6
	c-0.9,0-3.7-0.3-10.7-0.3c-7.5,0-9.9,0.3-11,0.3c-0.6,0-0.7-0.2-0.6-0.6l0.5-2c0.2-0.4,0.4-0.7,0.7-0.7h2.2c3.1,0,5.2-1.9,7-7.2
	l17.2-48.7c-4.3,1.1-8.9,5.3-10.6,7.5c-0.4,0.4-0.7,0.4-1.1,0.1l-1.1-0.8c-0.2-0.2-0.2-0.6,0-0.9c2.6-3.1,7-8.1,14.5-10.9l2.9-8.8
	c0.2-0.7,0.6-1.1,1.5-1.3l8.2-2.6c0.2-0.1,0.5-0.2,0.7-0.2s0.4,0.2,0.4,0.4c0,0.2-0.2,0.5-0.3,0.7l-4.6,10.3
	c1.4-0.2,2.5-0.2,3.4-0.2c8.8,0,13.4,5.7,13.4,12.2s-2.9,13.2-11.2,19.2c-4.4,3.1-11.8,6.1-19.3,6.8L255.4,328.5z M262.9,307.2
	c9-1.4,20.4-9.2,20.4-20.3c0-7.4-3.5-10.2-6.8-10.2c-0.9,0-1.8,0-2.8,0.3L262.9,307.2z"/>
<path class="st4" d="M311.1,285.7c4.4-6.6,10.5-13.4,17.5-13.4c5.7,0,7.4,4.4,7.4,8.6c0,6.7-2.8,14.4-6.1,20.3
	c-4,7.4-9.2,12.3-15.3,12.3c-2.9,0-5.3-2-5.3-5c0-2.2,1.5-4.6,3.9-4.6c2.2,0,3.1,1.7,3.3,3.1c0.2,1.3,0.6,2.5,1.8,2.5
	c2,0,4-5.8,5.5-10.6c1.8-5.3,3.5-12.1,3.5-16.5c0-2.1-0.6-4.3-2.8-4.3c-4,0-10.9,7.7-13.4,11c-2.2,2.9-4,6.3-5.2,9.4l-4.8,11.2
	c-0.2,0.6-0.5,0.7-1.1,0.7h-5.9c-0.8,0-1-0.6-0.7-1.3l19.7-51.3c0.7-1.9,1.2-3.5,1.2-4.3c0-1.1-1.2-1.8-2.9-1.8h-2.8
	c-0.4,0-0.7-0.4-0.6-0.9l0.4-1.7c0.2-0.6,0.4-0.7,1.3-0.7h14.5c0.7,0,1.1,0.4,1.1,0.9c0,0.6-0.4,1.5-0.9,2.9l-14,32.9L311.1,285.7z"
	/>
<path class="st3" d="M340.7,298.8c0-7.7,2.6-15.1,7.7-20.7c3.7-4,8.1-5.9,13.1-5.9c5.3,0,11.4,3.3,11.4,11.6
	c0,5.9-2.4,15.5-7.9,21.5c-3.5,4-7.7,6.1-13.2,6.1C346.4,311.4,340.7,307.3,340.7,298.8z M361,297.9c3.4-5.8,6.3-13.4,6.3-16.7
	c0-2-1.3-4.1-4-4.1c-3.8,0-7.3,3.2-11.8,10.8c-3,5.2-4.9,10.7-4.9,14.3c0,2.5,1.8,4.3,3.9,4.3C354.1,306.5,357.4,303.9,361,297.9z"
	/>
<path class="st3" d="M386.7,310c-0.2,0.4-0.4,0.6-1.3,0.6h-5.9c-0.8,0-0.9-0.6-0.7-1.2l6.3-17c2-5.9,4.2-11.6,4.2-12.9
	c0-0.9-0.6-1.5-1.4-1.5c-1.7,0-5.2,3.3-6.7,4.8c-0.2,0.4-0.6,0.4-0.8,0.1l-1-1c-0.4-0.2-0.6-0.6-0.2-0.9c1.3-1.7,7.4-8.6,15.7-8.6
	c2.7,0,3.5,1.8,3.5,3.1c0,2-2.7,8.3-4.3,12.3l0.6,0.4c2.8-4.2,11.2-15.8,20-15.8c3.4,0,5.2,2.6,5.2,5.2c0,2.4-1.2,6.7-5,16.2
	c-2.4,6.1-3.7,9.6-3.7,10.9c0,0.9,0.4,1.5,1.1,1.5c1.3,0,4.8-3.1,5.7-4.4c0.4-0.2,0.7-0.2,1.1,0.2l0.9,0.7c0.4,0.2,0.4,0.6,0,1.1
	c-1.1,1.5-7.5,7.9-15.3,7.9c-2,0-3.1-1.1-3.1-2.8c0-1.7,2.6-7.9,5.5-16c1.4-3.9,4-10.9,4-12c0-1.5-0.8-2.2-2.1-2.2
	c-2.8,0-10.5,7.4-14.3,13.6c-1.8,2.9-3.5,5.7-5,9.4L386.7,310z"/>
<path class="st3" d="M445.7,308.3c1.7-2.9,7.2-13.8,8.3-18.4c0.4-1.5,1.1-3.7,1.1-5.9c0-1.7-0.4-3.1-0.7-4.2
	c-0.4-1.1-0.9-2.4-0.9-3.7c0-1.7,1.3-3.9,4.6-3.9c3.5,0,4.6,2.6,4.6,5.9c0,4-3.3,12.1-6.4,18.4c-4.6,9-14.3,25.2-22.4,32.9
	c-2.7,2.6-8.2,8.4-13.9,8.4c-4,0-5.9-2.2-5.9-4.8c0-2.8,2.2-4.6,4.2-4.8c1.7,0,2.4,0.7,3.3,1.7c0.7,0.7,1.8,1.3,2.6,1.3
	c0.9,0,2.4-0.4,4.1-1.6c4.2-3,7.6-8.2,9.1-10.5c1-1.7,1.3-3.9,0.9-6.3c-0.2-2.9-2.3-27.4-3.4-31.5c-0.5-1.7-0.6-2.4-1.7-2.4
	c-1.7,0-4,4.6-4.8,6.6c-0.2,0.6-0.4,0.6-0.8,0.5l-1.4-0.5c-0.4,0-0.4-0.4-0.2-1.1c0.4-1.1,4.2-12.3,12.3-12.3
	c3.3,0,5.2,2.4,5.7,10.1c0.7,10.5,1.1,21.3,1.2,25.9h0.5V308.3z"/>
<path class="st5" d="M167.3,235.1c1.2,0,1.9-0.1,2.3-0.2c0.4-0.1,0.6-0.2,0.6-0.2c0.1,0,0.2,0,0.1,0.2c0,0.3-0.3,3.8-0.2,4.8
	c0,0.1,0,0.2-0.2,0.2h-0.3c-0.2,0-0.3,0-0.3-0.3c-0.1-0.8-0.6-2.5-0.9-3.2c-0.7-0.3-2.9-0.5-3.7-0.5h-0.5l-4,12.4
	c-0.5,1.5-0.3,2.1,1,2.1h0.9c0.2,0,0.2,0.1,0.2,0.2l-0.1,0.5c0,0.1-0.1,0.2-0.3,0.2c-0.3,0-1.3-0.1-3.6-0.1c-1.7,0-3,0.1-3.3,0.1
	c-0.2,0-0.2-0.1-0.2-0.2l0.1-0.5c0-0.1,0.1-0.2,0.3-0.2h0.6c1.4,0,1.9-0.6,2.4-2.5l3.8-12h-0.6c-2.3,0-3.6,0.3-4.3,0.5
	c-1,0.8-2.1,2.2-2.4,2.8c-0.1,0.1-0.2,0.1-0.3,0.1l-0.3-0.1c-0.1,0-0.1-0.1,0-0.2c0.3-0.6,1.8-3.8,1.8-4c0-0.1,0.1-0.2,0.2-0.2
	c0.3,0,0.8,0.5,3.9,0.5h7.3V235.1z"/>
<path class="st5" d="M169,242.8c-0.5,0-0.9,0.3-0.9,0.8c0,0.4,0.2,0.6,0.5,0.7c0.1,0.1,0.5,0.3,0.5,0.7s-0.3,0.8-0.9,0.8
	c-0.4,0-1.1-0.4-1.1-1.4c0-0.9,0.5-1.5,1.1-2.2c0.3-0.4,1.1-0.8,1.8-0.8h1.8l2.2-0.1c0.3,0,0.5,0.2,0.2,0.5
	c-0.7,0.8-2.8,4.2-2.8,6.5c0,1.1,0.6,1.8,1.4,1.8c1.1,0,2.1-0.6,2.8-1.7c0.4-0.6,0.8-2.1,1-3.1c0.2-0.9,0.2-2.1,0.4-3
	c0.2-0.6,0.6-0.8,1.1-0.8c0.4,0,0.6,0.3,0.6,0.6c0,0.4-0.6,1.9-1.2,3.7c-0.3,0.9-0.6,1.6-0.6,2.2c0,1.1,1,2,2.1,2
	c1.6,0,3.4-1.8,3.4-5c0-0.4-0.2-1.2-0.4-1.5c-0.2-0.2-0.8-0.7-0.8-1.3s0.5-1,1.1-1s1.2,0.4,1.2,2.5c0,1.7-0.5,4-1.6,5.5
	c-0.7,0.9-1.7,2.2-3.5,2.2c-1.5,0-2.3-1.4-2.4-2.2c-0.5,0.6-2.1,2.2-3.9,2.2c-1,0-2.2-0.8-2.2-2.4c0-2,2.2-5.3,3.2-6.4l-0.2-0.2
	c-0.3,0.1-1.2,0.4-1.8,0.4H169z"/>
<path class="st5" d="M185.3,250.8c0-0.6,0.4-1.7,1.4-4.3l0.7-1.9c0.2-0.6,0.4-1.1,0.4-1.4c0-0.2-0.1-0.3-0.3-0.3
	c-0.4,0-1.5,1.3-1.9,1.7c-0.1,0.1-0.2,0.1-0.3,0l-0.2-0.2c-0.1-0.1-0.1-0.1-0.1-0.2c0.1-0.1,2.5-3,4.1-3c0.3,0,0.6,0.2,0.6,0.6
	c0,0.4-0.4,1.5-0.8,2.7l-1.4,3.6c-0.3,0.9-0.4,1.4-0.4,1.6c0,0.2,0.1,0.4,0.3,0.4c0.5-0.1,1.8-1.5,1.9-1.7c0-0.1,0.1-0.1,0.3,0
	l0.2,0.2c0.1,0.1,0.1,0.2,0,0.3c-0.1,0.2-2.1,2.5-4.1,2.5C185.4,251.4,185.3,251.2,185.3,250.8z M188.3,236.8c0-0.6,0.5-1.2,1.2-1.2
	c0.8,0,1.3,0.6,1.3,1.2c0,0.4-0.3,1.2-1.3,1.2S188.3,237.1,188.3,236.8z"/>
<path class="st5" d="M192.1,251.2c-0.3,0-0.3,0-0.3-0.2l1.7-4.4c0.6-1.5,1.2-3.2,1.2-3.6c0-0.2-0.1-0.4-0.4-0.4
	c-0.5,0-1.6,1.2-2,1.6c-0.1,0.1-0.1,0.1-0.2,0l-0.2-0.2c-0.1-0.1-0.1-0.1,0-0.2c0.4-0.4,2.1-2.4,3.9-2.4c0.6,0,0.8,0.4,0.8,0.7
	c0,0.7-1,3-1.2,3.6h0.1c0.7-1.2,3.3-4.3,5.5-4.3c0.7,0,1.2,0.4,1.2,1c0,1.1-0.6,2.3-1.3,4.2c-0.6,1.6-1.2,2.9-1.2,3.3
	c0,0.1,0.1,0.3,0.3,0.3c0.4,0,1.4-0.9,1.7-1.2c0.1-0.1,0.2,0,0.3,0l0.2,0.2c0.1,0.1,0.1,0.1,0,0.3c-0.3,0.4-2.2,2.1-3.8,2.1
	c-0.3,0-0.6-0.1-0.6-0.5c0-0.5,0.9-2.4,1.6-4.4c0.3-0.9,1.2-2.9,1.2-3.5c0-0.3-0.2-0.6-0.6-0.6c-0.9,0-3.3,2.2-4.4,3.9
	c-0.4,0.7-0.8,1.3-1.4,3l-0.6,1.6c0,0.1-0.1,0.1-0.3,0.1L192.1,251.2L192.1,251.2z"/>
<path class="st5" d="M222.1,251.6c0,0.1-0.1,0.1-0.2,0.1l-0.4-0.1c-0.1,0-0.1-0.1-0.1-0.2c0-0.1,0.1-0.2,0.1-0.4
	c0-0.3-0.2-0.5-0.4-0.5s-0.6,0.1-1.1,0.3c-0.5,0.3-2.2,0.7-3.3,0.7c-3.2,0-5.8-2.2-5.8-5.7c0-2.7,1.3-5.9,3.5-8.3
	c1.6-1.7,3.7-2.8,5.8-2.8c1.2,0,2,0.2,3.2,1c0.3,0.2,0.7,0.7,1.2,0.7c0.3,0,0.5-0.2,0.6-0.7c0-0.1,0.1-0.2,0.2-0.1l0.3,0.1
	c0.1,0,0.2,0.1,0.1,0.2l-1.3,5c0,0.1-0.1,0.2-0.3,0.1h-0.3c-0.1,0-0.2-0.1-0.1-0.2c0.5-2.4-0.7-5.1-3.5-5.1c-1.9,0-3.2,1-4.6,2.9
	c-1.8,2.6-2.4,5.6-2.4,7.5c0,3.4,2.3,4.5,3.7,4.5c2,0,4.5-0.7,6-4.2c0.1-0.2,0.1-0.2,0.2-0.2l0.4,0.1c0.1,0,0.1,0.1,0.1,0.2
	L222.1,251.6z"/>
<path class="st5" d="M226.2,250.8c0-0.6,0.4-1.7,1.4-4.3l0.7-1.9c0.2-0.6,0.4-1.1,0.4-1.4c0-0.2-0.1-0.3-0.3-0.3
	c-0.4,0-1.5,1.3-1.9,1.7c-0.1,0.1-0.2,0.1-0.3,0l-0.2-0.2c-0.1-0.1-0.1-0.1-0.1-0.2c0.1-0.1,2.5-3,4.1-3c0.3,0,0.6,0.2,0.6,0.6
	c0,0.4-0.4,1.5-0.8,2.7l-1.4,3.6c-0.3,0.9-0.4,1.4-0.4,1.6c0,0.2,0.1,0.4,0.3,0.4c0.5-0.1,1.8-1.5,1.9-1.7c0-0.1,0.1-0.1,0.3,0
	l0.2,0.2c0.1,0.1,0.1,0.2,0,0.3c-0.1,0.2-2.1,2.5-4.1,2.5C226.4,251.4,226.2,251.2,226.2,250.8z M229.3,236.8c0-0.6,0.5-1.2,1.2-1.2
	c0.8,0,1.3,0.6,1.3,1.2c0,0.4-0.3,1.2-1.3,1.2C229.4,238,229.3,237.1,229.3,236.8z"/>
<path class="st5" d="M235.6,242.8h-1.7c-0.1,0-0.2,0-0.1-0.2l0.2-0.5c0-0.1,0.1-0.2,0.3-0.2h1.7l1.2-2.8c0.1-0.2,0.2-0.3,0.4-0.4
	c0.3-0.1,0.9-0.3,1.1-0.4c0.1-0.1,0.3-0.1,0.4-0.1c0.1,0,0.2,0.1,0,0.5l-1.6,3.2h2.4c0.1,0,0.2,0.1,0.1,0.3l-0.2,0.5
	c0,0.1-0.1,0.1-0.2,0.1h-2.4l-2.3,5.4c-0.3,0.7-0.6,1.3-0.6,1.5s0.1,0.4,0.3,0.4c0.7,0,2.3-1.4,2.4-1.5c0.1-0.1,0.1-0.1,0.2,0
	l0.3,0.3c0.1,0.1,0.1,0.1,0,0.2c-0.3,0.4-2.5,2.4-4.4,2.4c-0.6,0-0.8-0.2-0.8-0.6c0-0.4,0.1-0.8,0.3-1.1L235.6,242.8z"/>
<path class="st5" d="M240.7,250.8c0-0.6,0.4-1.7,1.4-4.3l0.7-1.9c0.2-0.6,0.4-1.1,0.4-1.4c0-0.2-0.1-0.3-0.3-0.3
	c-0.4,0-1.5,1.3-1.9,1.7c-0.1,0.1-0.2,0.1-0.3,0l-0.2-0.2c-0.1-0.1-0.1-0.1-0.1-0.2c0.1-0.1,2.5-3,4.1-3c0.3,0,0.6,0.2,0.6,0.6
	c0,0.4-0.4,1.5-0.8,2.7l-1.4,3.6c-0.3,0.9-0.4,1.4-0.4,1.6c0,0.2,0.1,0.4,0.3,0.4c0.5-0.1,1.8-1.5,1.9-1.7c0-0.1,0.1-0.1,0.3,0
	l0.2,0.2c0.1,0.1,0.1,0.2,0,0.3c-0.1,0.2-2.1,2.5-4.1,2.5C240.8,251.4,240.7,251.2,240.7,250.8z M243.7,236.8c0-0.6,0.5-1.2,1.2-1.2
	c0.8,0,1.3,0.6,1.3,1.2c0,0.4-0.3,1.2-1.3,1.2S243.7,237.1,243.7,236.8z"/>
<path class="st5" d="M246.8,249.1c0-2,1.3-4.5,3.1-6.3c0.8-0.8,2.1-1.6,3.2-1.6c0.9,0,1.4,0.7,1.4,1.3c0,1.2-0.9,2.4-2.2,3.1
	c-1.3,0.6-2.6,0.9-3.5,1c-0.1,0.3-0.3,1.1-0.3,2.2c0,1.1,0.8,1.5,1.2,1.5c1.2,0,2.2-0.9,2.7-1.7c0-0.1,0.1-0.1,0.2,0l0.3,0.2
	c0.1,0.1,0.1,0.1,0,0.2c-0.6,0.8-2,2.4-3.9,2.4C247.5,251.4,246.8,250.7,246.8,249.1z M248.9,245.9c0.8,0.1,4-0.9,4-2.7
	c0-0.5-0.2-0.9-0.8-0.9C250.6,242.3,249.1,245,248.9,245.9z"/>
<path class="st5" d="M254.4,250.1c0-0.3,0.3-0.8,0.8-0.8s0.8,0.4,1,0.8c0.1,0.4,0.3,0.7,0.9,0.7c0.7,0,1.3-0.6,1.3-1.5
	c0-1-0.7-2-1-2.8c-0.2-0.4-0.7-1.2-0.7-2.4c0-1.4,1.3-2.9,3-2.9c0.7,0,1.7,0.3,1.7,1.2c0,0.4-0.4,0.8-0.7,0.8
	c-0.3,0-0.6-0.2-0.8-0.6c-0.1-0.3-0.1-0.7-0.6-0.7s-1.2,0.6-1.2,1.5s0.7,1.9,0.9,2.2c0.1,0.3,0.9,1.5,0.9,2.7c0,1.9-1.5,3-3.2,3
	C255.3,251.4,254.4,250.9,254.4,250.1z"/>
</svg>
